<svg xmlns="http://www.w3.org/2000/svg" width="24" height="24" viewBox="0 0 24 24" fill="#F1F5F9" stroke="#4f5d3c"
    stroke-width="2" stroke-linecap="round" stroke-linejoin="round"
    class="lucide lucide-university-icon lucide-university">

    <path
        d="M22 7a1 1 0 0 0-1-1h-2a2 2 0 0 1-1.143-.359L13.143 2.36a2 2 0 0 0-2.286-.001L6.143 5.64A2 2 0 0 1 5 6H3a1 1 0 0 0-1 1v12a2 2 0 0 0 2 2h16a2 2 0 0 0 2-2z" />
    <path d="M6 12h.01" />
    <path d="M6 16h.01" />
    <circle cx="12" cy="10" r="2" />
    <path d="M14 21v-3a2 2 0 0 0-4 0v3" />
    <path d="M18 12h.01" />
    <path d="M18 16h.01" />
</svg>